<?xml version="1.0" encoding="UTF-8"?>
<svg width="48" height="48" viewBox="0 0 48 48" xmlns="http://www.w3.org/2000/svg">
  <defs>
    <linearGradient id="securityGradient" x1="0%" y1="0%" x2="100%" y2="100%">
      <stop offset="0%" style="stop-color:#ff6b6b;stop-opacity:1" />
      <stop offset="50%" style="stop-color:#64ffda;stop-opacity:1" />
      <stop offset="100%" style="stop-color:#4ecdc4;stop-opacity:1" />
    </linearGradient>
  </defs>

  <!-- Shield shape -->
  <path d="M 24 4 L 8 12 L 8 24 Q 8 36 24 44 Q 40 36 40 24 L 40 12 Z"
        fill="url(#securityGradient)" opacity="0.3"/>
  <path d="M 24 4 L 8 12 L 8 24 Q 8 36 24 44 Q 40 36 40 24 L 40 12 Z"
        fill="none" stroke="url(#securityGradient)" stroke-width="2"/>

  <!-- AI neural network inside shield -->
  <circle cx="20" cy="20" r="3" fill="#64ffda"/>
  <circle cx="28" cy="20" r="3" fill="#64ffda"/>
  <circle cx="24" cy="28" r="3" fill="#64ffda"/>
  <circle cx="18" cy="32" r="2" fill="#00bcd4"/>
  <circle cx="30" cy="32" r="2" fill="#00bcd4"/>

  <!-- Neural connections -->
  <line x1="20" y1="20" x2="28" y2="20" stroke="#64ffda" stroke-width="1.5"/>
  <line x1="20" y1="20" x2="24" y2="28" stroke="#64ffda" stroke-width="1.5"/>
  <line x1="28" y1="20" x2="24" y2="28" stroke="#64ffda" stroke-width="1.5"/>
  <line x1="24" y1="28" x2="18" y2="32" stroke="#00bcd4" stroke-width="1"/>
  <line x1="24" y1="28" x2="30" y2="32" stroke="#00bcd4" stroke-width="1"/>
</svg>